<mxfile host="Electron" agent="Mozilla/5.0 (Windows NT 10.0; Win64; x64) AppleWebKit/537.36 (KHTML, like Gecko) draw.io/27.0.9 Chrome/134.0.6998.205 Electron/35.4.0 Safari/537.36" version="27.0.9">
  <diagram name="Page-1" id="j1yHz7ROgucncaPMVlbB">
    <mxGraphModel dx="1104" dy="619" grid="1" gridSize="10" guides="1" tooltips="1" connect="1" arrows="1" fold="1" page="1" pageScale="1" pageWidth="850" pageHeight="1100" math="0" shadow="0">
      <root>
        <mxCell id="0" />
        <mxCell id="1" parent="0" />
        <mxCell id="ZGHDQgkVR9RvyCiD6TGg-14" value="gold.dim_customers" style="shape=table;startSize=30;container=1;collapsible=1;childLayout=tableLayout;fixedRows=1;rowLines=0;fontStyle=1;align=center;resizeLast=1;html=1;rounded=1;fillColor=#fff2cc;strokeColor=#d6b656;fontSize=16;" vertex="1" parent="1">
          <mxGeometry x="60" y="220" width="180" height="420" as="geometry" />
        </mxCell>
        <mxCell id="ZGHDQgkVR9RvyCiD6TGg-15" value="" style="shape=tableRow;horizontal=0;startSize=0;swimlaneHead=0;swimlaneBody=0;fillColor=none;collapsible=0;dropTarget=0;points=[[0,0.5],[1,0.5]];portConstraint=eastwest;top=0;left=0;right=0;bottom=1;fontSize=16;" vertex="1" parent="ZGHDQgkVR9RvyCiD6TGg-14">
          <mxGeometry y="30" width="180" height="39" as="geometry" />
        </mxCell>
        <mxCell id="ZGHDQgkVR9RvyCiD6TGg-16" value="PK" style="shape=partialRectangle;connectable=0;fillColor=none;top=0;left=0;bottom=0;right=0;fontStyle=1;overflow=hidden;whiteSpace=wrap;html=1;fontSize=16;" vertex="1" parent="ZGHDQgkVR9RvyCiD6TGg-15">
          <mxGeometry width="30" height="39" as="geometry">
            <mxRectangle width="30" height="39" as="alternateBounds" />
          </mxGeometry>
        </mxCell>
        <mxCell id="ZGHDQgkVR9RvyCiD6TGg-17" value="customer_key" style="shape=partialRectangle;connectable=0;fillColor=none;top=0;left=0;bottom=0;right=0;align=left;spacingLeft=6;fontStyle=5;overflow=hidden;whiteSpace=wrap;html=1;fontSize=16;" vertex="1" parent="ZGHDQgkVR9RvyCiD6TGg-15">
          <mxGeometry x="30" width="150" height="39" as="geometry">
            <mxRectangle width="150" height="39" as="alternateBounds" />
          </mxGeometry>
        </mxCell>
        <mxCell id="ZGHDQgkVR9RvyCiD6TGg-18" value="" style="shape=tableRow;horizontal=0;startSize=0;swimlaneHead=0;swimlaneBody=0;fillColor=none;collapsible=0;dropTarget=0;points=[[0,0.5],[1,0.5]];portConstraint=eastwest;top=0;left=0;right=0;bottom=0;fontSize=16;" vertex="1" parent="ZGHDQgkVR9RvyCiD6TGg-14">
          <mxGeometry y="69" width="180" height="39" as="geometry" />
        </mxCell>
        <mxCell id="ZGHDQgkVR9RvyCiD6TGg-19" value="" style="shape=partialRectangle;connectable=0;fillColor=none;top=0;left=0;bottom=0;right=0;editable=1;overflow=hidden;whiteSpace=wrap;html=1;fontSize=16;" vertex="1" parent="ZGHDQgkVR9RvyCiD6TGg-18">
          <mxGeometry width="30" height="39" as="geometry">
            <mxRectangle width="30" height="39" as="alternateBounds" />
          </mxGeometry>
        </mxCell>
        <mxCell id="ZGHDQgkVR9RvyCiD6TGg-20" value="customer_id" style="shape=partialRectangle;connectable=0;fillColor=none;top=0;left=0;bottom=0;right=0;align=left;spacingLeft=6;overflow=hidden;whiteSpace=wrap;html=1;labelBorderColor=default;fontSize=16;" vertex="1" parent="ZGHDQgkVR9RvyCiD6TGg-18">
          <mxGeometry x="30" width="150" height="39" as="geometry">
            <mxRectangle width="150" height="39" as="alternateBounds" />
          </mxGeometry>
        </mxCell>
        <mxCell id="ZGHDQgkVR9RvyCiD6TGg-21" value="" style="shape=tableRow;horizontal=0;startSize=0;swimlaneHead=0;swimlaneBody=0;fillColor=none;collapsible=0;dropTarget=0;points=[[0,0.5],[1,0.5]];portConstraint=eastwest;top=0;left=0;right=0;bottom=0;fontSize=16;" vertex="1" parent="ZGHDQgkVR9RvyCiD6TGg-14">
          <mxGeometry y="108" width="180" height="39" as="geometry" />
        </mxCell>
        <mxCell id="ZGHDQgkVR9RvyCiD6TGg-22" value="" style="shape=partialRectangle;connectable=0;fillColor=none;top=0;left=0;bottom=0;right=0;editable=1;overflow=hidden;whiteSpace=wrap;html=1;fontSize=16;" vertex="1" parent="ZGHDQgkVR9RvyCiD6TGg-21">
          <mxGeometry width="30" height="39" as="geometry">
            <mxRectangle width="30" height="39" as="alternateBounds" />
          </mxGeometry>
        </mxCell>
        <mxCell id="ZGHDQgkVR9RvyCiD6TGg-23" value="customer_number" style="shape=partialRectangle;connectable=0;fillColor=none;top=0;left=0;bottom=0;right=0;align=left;spacingLeft=6;overflow=hidden;whiteSpace=wrap;html=1;labelBorderColor=default;fontSize=16;" vertex="1" parent="ZGHDQgkVR9RvyCiD6TGg-21">
          <mxGeometry x="30" width="150" height="39" as="geometry">
            <mxRectangle width="150" height="39" as="alternateBounds" />
          </mxGeometry>
        </mxCell>
        <mxCell id="ZGHDQgkVR9RvyCiD6TGg-24" value="" style="shape=tableRow;horizontal=0;startSize=0;swimlaneHead=0;swimlaneBody=0;fillColor=none;collapsible=0;dropTarget=0;points=[[0,0.5],[1,0.5]];portConstraint=eastwest;top=0;left=0;right=0;bottom=0;fontSize=16;" vertex="1" parent="ZGHDQgkVR9RvyCiD6TGg-14">
          <mxGeometry y="147" width="180" height="39" as="geometry" />
        </mxCell>
        <mxCell id="ZGHDQgkVR9RvyCiD6TGg-25" value="" style="shape=partialRectangle;connectable=0;fillColor=none;top=0;left=0;bottom=0;right=0;editable=1;overflow=hidden;whiteSpace=wrap;html=1;fontSize=16;" vertex="1" parent="ZGHDQgkVR9RvyCiD6TGg-24">
          <mxGeometry width="30" height="39" as="geometry">
            <mxRectangle width="30" height="39" as="alternateBounds" />
          </mxGeometry>
        </mxCell>
        <mxCell id="ZGHDQgkVR9RvyCiD6TGg-26" value="first_name" style="shape=partialRectangle;connectable=0;fillColor=none;top=0;left=0;bottom=0;right=0;align=left;spacingLeft=6;overflow=hidden;whiteSpace=wrap;html=1;labelBorderColor=default;fontSize=16;" vertex="1" parent="ZGHDQgkVR9RvyCiD6TGg-24">
          <mxGeometry x="30" width="150" height="39" as="geometry">
            <mxRectangle width="150" height="39" as="alternateBounds" />
          </mxGeometry>
        </mxCell>
        <mxCell id="ZGHDQgkVR9RvyCiD6TGg-28" value="" style="shape=tableRow;horizontal=0;startSize=0;swimlaneHead=0;swimlaneBody=0;fillColor=none;collapsible=0;dropTarget=0;points=[[0,0.5],[1,0.5]];portConstraint=eastwest;top=0;left=0;right=0;bottom=0;fontSize=16;" vertex="1" parent="ZGHDQgkVR9RvyCiD6TGg-14">
          <mxGeometry y="186" width="180" height="39" as="geometry" />
        </mxCell>
        <mxCell id="ZGHDQgkVR9RvyCiD6TGg-29" value="" style="shape=partialRectangle;connectable=0;fillColor=none;top=0;left=0;bottom=0;right=0;editable=1;overflow=hidden;whiteSpace=wrap;html=1;fontSize=16;" vertex="1" parent="ZGHDQgkVR9RvyCiD6TGg-28">
          <mxGeometry width="30" height="39" as="geometry">
            <mxRectangle width="30" height="39" as="alternateBounds" />
          </mxGeometry>
        </mxCell>
        <mxCell id="ZGHDQgkVR9RvyCiD6TGg-30" value="last_name" style="shape=partialRectangle;connectable=0;fillColor=none;top=0;left=0;bottom=0;right=0;align=left;spacingLeft=6;overflow=hidden;whiteSpace=wrap;html=1;labelBorderColor=default;fontSize=16;" vertex="1" parent="ZGHDQgkVR9RvyCiD6TGg-28">
          <mxGeometry x="30" width="150" height="39" as="geometry">
            <mxRectangle width="150" height="39" as="alternateBounds" />
          </mxGeometry>
        </mxCell>
        <mxCell id="ZGHDQgkVR9RvyCiD6TGg-31" value="" style="shape=tableRow;horizontal=0;startSize=0;swimlaneHead=0;swimlaneBody=0;fillColor=none;collapsible=0;dropTarget=0;points=[[0,0.5],[1,0.5]];portConstraint=eastwest;top=0;left=0;right=0;bottom=0;fontSize=16;" vertex="1" parent="ZGHDQgkVR9RvyCiD6TGg-14">
          <mxGeometry y="225" width="180" height="39" as="geometry" />
        </mxCell>
        <mxCell id="ZGHDQgkVR9RvyCiD6TGg-32" value="" style="shape=partialRectangle;connectable=0;fillColor=none;top=0;left=0;bottom=0;right=0;editable=1;overflow=hidden;whiteSpace=wrap;html=1;fontSize=16;" vertex="1" parent="ZGHDQgkVR9RvyCiD6TGg-31">
          <mxGeometry width="30" height="39" as="geometry">
            <mxRectangle width="30" height="39" as="alternateBounds" />
          </mxGeometry>
        </mxCell>
        <mxCell id="ZGHDQgkVR9RvyCiD6TGg-33" value="country" style="shape=partialRectangle;connectable=0;fillColor=none;top=0;left=0;bottom=0;right=0;align=left;spacingLeft=6;overflow=hidden;whiteSpace=wrap;html=1;labelBorderColor=default;fontSize=16;" vertex="1" parent="ZGHDQgkVR9RvyCiD6TGg-31">
          <mxGeometry x="30" width="150" height="39" as="geometry">
            <mxRectangle width="150" height="39" as="alternateBounds" />
          </mxGeometry>
        </mxCell>
        <mxCell id="ZGHDQgkVR9RvyCiD6TGg-34" value="" style="shape=tableRow;horizontal=0;startSize=0;swimlaneHead=0;swimlaneBody=0;fillColor=none;collapsible=0;dropTarget=0;points=[[0,0.5],[1,0.5]];portConstraint=eastwest;top=0;left=0;right=0;bottom=0;fontSize=16;" vertex="1" parent="ZGHDQgkVR9RvyCiD6TGg-14">
          <mxGeometry y="264" width="180" height="39" as="geometry" />
        </mxCell>
        <mxCell id="ZGHDQgkVR9RvyCiD6TGg-35" value="" style="shape=partialRectangle;connectable=0;fillColor=none;top=0;left=0;bottom=0;right=0;editable=1;overflow=hidden;whiteSpace=wrap;html=1;fontSize=16;" vertex="1" parent="ZGHDQgkVR9RvyCiD6TGg-34">
          <mxGeometry width="30" height="39" as="geometry">
            <mxRectangle width="30" height="39" as="alternateBounds" />
          </mxGeometry>
        </mxCell>
        <mxCell id="ZGHDQgkVR9RvyCiD6TGg-36" value="martial_status" style="shape=partialRectangle;connectable=0;fillColor=none;top=0;left=0;bottom=0;right=0;align=left;spacingLeft=6;overflow=hidden;whiteSpace=wrap;html=1;labelBorderColor=default;fontSize=16;" vertex="1" parent="ZGHDQgkVR9RvyCiD6TGg-34">
          <mxGeometry x="30" width="150" height="39" as="geometry">
            <mxRectangle width="150" height="39" as="alternateBounds" />
          </mxGeometry>
        </mxCell>
        <mxCell id="ZGHDQgkVR9RvyCiD6TGg-37" value="" style="shape=tableRow;horizontal=0;startSize=0;swimlaneHead=0;swimlaneBody=0;fillColor=none;collapsible=0;dropTarget=0;points=[[0,0.5],[1,0.5]];portConstraint=eastwest;top=0;left=0;right=0;bottom=0;fontSize=16;" vertex="1" parent="ZGHDQgkVR9RvyCiD6TGg-14">
          <mxGeometry y="303" width="180" height="39" as="geometry" />
        </mxCell>
        <mxCell id="ZGHDQgkVR9RvyCiD6TGg-38" value="" style="shape=partialRectangle;connectable=0;fillColor=none;top=0;left=0;bottom=0;right=0;editable=1;overflow=hidden;whiteSpace=wrap;html=1;fontSize=16;" vertex="1" parent="ZGHDQgkVR9RvyCiD6TGg-37">
          <mxGeometry width="30" height="39" as="geometry">
            <mxRectangle width="30" height="39" as="alternateBounds" />
          </mxGeometry>
        </mxCell>
        <mxCell id="ZGHDQgkVR9RvyCiD6TGg-39" value="gender" style="shape=partialRectangle;connectable=0;fillColor=none;top=0;left=0;bottom=0;right=0;align=left;spacingLeft=6;overflow=hidden;whiteSpace=wrap;html=1;labelBorderColor=default;fontSize=16;" vertex="1" parent="ZGHDQgkVR9RvyCiD6TGg-37">
          <mxGeometry x="30" width="150" height="39" as="geometry">
            <mxRectangle width="150" height="39" as="alternateBounds" />
          </mxGeometry>
        </mxCell>
        <mxCell id="ZGHDQgkVR9RvyCiD6TGg-40" value="" style="shape=tableRow;horizontal=0;startSize=0;swimlaneHead=0;swimlaneBody=0;fillColor=none;collapsible=0;dropTarget=0;points=[[0,0.5],[1,0.5]];portConstraint=eastwest;top=0;left=0;right=0;bottom=0;fontSize=16;" vertex="1" parent="ZGHDQgkVR9RvyCiD6TGg-14">
          <mxGeometry y="342" width="180" height="39" as="geometry" />
        </mxCell>
        <mxCell id="ZGHDQgkVR9RvyCiD6TGg-41" value="" style="shape=partialRectangle;connectable=0;fillColor=none;top=0;left=0;bottom=0;right=0;editable=1;overflow=hidden;whiteSpace=wrap;html=1;fontSize=16;" vertex="1" parent="ZGHDQgkVR9RvyCiD6TGg-40">
          <mxGeometry width="30" height="39" as="geometry">
            <mxRectangle width="30" height="39" as="alternateBounds" />
          </mxGeometry>
        </mxCell>
        <mxCell id="ZGHDQgkVR9RvyCiD6TGg-42" value="birthdate" style="shape=partialRectangle;connectable=0;fillColor=none;top=0;left=0;bottom=0;right=0;align=left;spacingLeft=6;overflow=hidden;whiteSpace=wrap;html=1;labelBorderColor=default;fontSize=16;" vertex="1" parent="ZGHDQgkVR9RvyCiD6TGg-40">
          <mxGeometry x="30" width="150" height="39" as="geometry">
            <mxRectangle width="150" height="39" as="alternateBounds" />
          </mxGeometry>
        </mxCell>
        <mxCell id="ZGHDQgkVR9RvyCiD6TGg-43" value="" style="shape=tableRow;horizontal=0;startSize=0;swimlaneHead=0;swimlaneBody=0;fillColor=none;collapsible=0;dropTarget=0;points=[[0,0.5],[1,0.5]];portConstraint=eastwest;top=0;left=0;right=0;bottom=0;fontSize=16;" vertex="1" parent="ZGHDQgkVR9RvyCiD6TGg-14">
          <mxGeometry y="381" width="180" height="39" as="geometry" />
        </mxCell>
        <mxCell id="ZGHDQgkVR9RvyCiD6TGg-44" value="" style="shape=partialRectangle;connectable=0;fillColor=none;top=0;left=0;bottom=0;right=0;editable=1;overflow=hidden;whiteSpace=wrap;html=1;fontSize=16;" vertex="1" parent="ZGHDQgkVR9RvyCiD6TGg-43">
          <mxGeometry width="30" height="39" as="geometry">
            <mxRectangle width="30" height="39" as="alternateBounds" />
          </mxGeometry>
        </mxCell>
        <mxCell id="ZGHDQgkVR9RvyCiD6TGg-45" value="country" style="shape=partialRectangle;connectable=0;fillColor=none;top=0;left=0;bottom=0;right=0;align=left;spacingLeft=6;overflow=hidden;whiteSpace=wrap;html=1;labelBorderColor=default;fontSize=16;" vertex="1" parent="ZGHDQgkVR9RvyCiD6TGg-43">
          <mxGeometry x="30" width="150" height="39" as="geometry">
            <mxRectangle width="150" height="39" as="alternateBounds" />
          </mxGeometry>
        </mxCell>
        <mxCell id="ZGHDQgkVR9RvyCiD6TGg-46" value="gold.fact_sales" style="shape=table;startSize=30;container=1;collapsible=1;childLayout=tableLayout;fixedRows=1;rowLines=0;fontStyle=1;align=center;resizeLast=1;html=1;rounded=1;fillColor=#dae8fc;strokeColor=#6c8ebf;fontSize=16;" vertex="1" parent="1">
          <mxGeometry x="366" y="220" width="180" height="381" as="geometry" />
        </mxCell>
        <mxCell id="ZGHDQgkVR9RvyCiD6TGg-50" value="" style="shape=tableRow;horizontal=0;startSize=0;swimlaneHead=0;swimlaneBody=0;fillColor=none;collapsible=0;dropTarget=0;points=[[0,0.5],[1,0.5]];portConstraint=eastwest;top=0;left=0;right=0;bottom=0;fontSize=16;" vertex="1" parent="ZGHDQgkVR9RvyCiD6TGg-46">
          <mxGeometry y="30" width="180" height="39" as="geometry" />
        </mxCell>
        <mxCell id="ZGHDQgkVR9RvyCiD6TGg-51" value="" style="shape=partialRectangle;connectable=0;fillColor=none;top=0;left=0;bottom=0;right=0;editable=1;overflow=hidden;whiteSpace=wrap;html=1;fontSize=16;" vertex="1" parent="ZGHDQgkVR9RvyCiD6TGg-50">
          <mxGeometry width="40" height="39" as="geometry">
            <mxRectangle width="40" height="39" as="alternateBounds" />
          </mxGeometry>
        </mxCell>
        <mxCell id="ZGHDQgkVR9RvyCiD6TGg-52" value="order_number" style="shape=partialRectangle;connectable=0;fillColor=none;top=0;left=0;bottom=0;right=0;align=left;spacingLeft=6;overflow=hidden;whiteSpace=wrap;html=1;labelBorderColor=default;fontSize=16;" vertex="1" parent="ZGHDQgkVR9RvyCiD6TGg-50">
          <mxGeometry x="40" width="140" height="39" as="geometry">
            <mxRectangle width="140" height="39" as="alternateBounds" />
          </mxGeometry>
        </mxCell>
        <mxCell id="ZGHDQgkVR9RvyCiD6TGg-53" value="" style="shape=tableRow;horizontal=0;startSize=0;swimlaneHead=0;swimlaneBody=0;fillColor=none;collapsible=0;dropTarget=0;points=[[0,0.5],[1,0.5]];portConstraint=eastwest;top=0;left=0;right=0;bottom=0;fontSize=16;" vertex="1" parent="ZGHDQgkVR9RvyCiD6TGg-46">
          <mxGeometry y="69" width="180" height="39" as="geometry" />
        </mxCell>
        <mxCell id="ZGHDQgkVR9RvyCiD6TGg-54" value="FK1" style="shape=partialRectangle;connectable=0;fillColor=none;top=0;left=0;bottom=0;right=0;editable=1;overflow=hidden;whiteSpace=wrap;html=1;fontSize=16;" vertex="1" parent="ZGHDQgkVR9RvyCiD6TGg-53">
          <mxGeometry width="40" height="39" as="geometry">
            <mxRectangle width="40" height="39" as="alternateBounds" />
          </mxGeometry>
        </mxCell>
        <mxCell id="ZGHDQgkVR9RvyCiD6TGg-55" value="product_key" style="shape=partialRectangle;connectable=0;fillColor=none;top=0;left=0;bottom=0;right=0;align=left;spacingLeft=6;overflow=hidden;whiteSpace=wrap;html=1;labelBorderColor=default;fontSize=16;" vertex="1" parent="ZGHDQgkVR9RvyCiD6TGg-53">
          <mxGeometry x="40" width="140" height="39" as="geometry">
            <mxRectangle width="140" height="39" as="alternateBounds" />
          </mxGeometry>
        </mxCell>
        <mxCell id="ZGHDQgkVR9RvyCiD6TGg-56" value="" style="shape=tableRow;horizontal=0;startSize=0;swimlaneHead=0;swimlaneBody=0;fillColor=none;collapsible=0;dropTarget=0;points=[[0,0.5],[1,0.5]];portConstraint=eastwest;top=0;left=0;right=0;bottom=0;fontSize=16;" vertex="1" parent="ZGHDQgkVR9RvyCiD6TGg-46">
          <mxGeometry y="108" width="180" height="39" as="geometry" />
        </mxCell>
        <mxCell id="ZGHDQgkVR9RvyCiD6TGg-57" value="FK2" style="shape=partialRectangle;connectable=0;fillColor=none;top=0;left=0;bottom=0;right=0;editable=1;overflow=hidden;whiteSpace=wrap;html=1;fontSize=16;" vertex="1" parent="ZGHDQgkVR9RvyCiD6TGg-56">
          <mxGeometry width="40" height="39" as="geometry">
            <mxRectangle width="40" height="39" as="alternateBounds" />
          </mxGeometry>
        </mxCell>
        <mxCell id="ZGHDQgkVR9RvyCiD6TGg-58" value="customer_key" style="shape=partialRectangle;connectable=0;fillColor=none;top=0;left=0;bottom=0;right=0;align=left;spacingLeft=6;overflow=hidden;whiteSpace=wrap;html=1;labelBorderColor=default;fontSize=16;" vertex="1" parent="ZGHDQgkVR9RvyCiD6TGg-56">
          <mxGeometry x="40" width="140" height="39" as="geometry">
            <mxRectangle width="140" height="39" as="alternateBounds" />
          </mxGeometry>
        </mxCell>
        <mxCell id="ZGHDQgkVR9RvyCiD6TGg-59" value="" style="shape=tableRow;horizontal=0;startSize=0;swimlaneHead=0;swimlaneBody=0;fillColor=none;collapsible=0;dropTarget=0;points=[[0,0.5],[1,0.5]];portConstraint=eastwest;top=0;left=0;right=0;bottom=0;fontSize=16;" vertex="1" parent="ZGHDQgkVR9RvyCiD6TGg-46">
          <mxGeometry y="147" width="180" height="39" as="geometry" />
        </mxCell>
        <mxCell id="ZGHDQgkVR9RvyCiD6TGg-60" value="" style="shape=partialRectangle;connectable=0;fillColor=none;top=0;left=0;bottom=0;right=0;editable=1;overflow=hidden;whiteSpace=wrap;html=1;fontSize=16;" vertex="1" parent="ZGHDQgkVR9RvyCiD6TGg-59">
          <mxGeometry width="40" height="39" as="geometry">
            <mxRectangle width="40" height="39" as="alternateBounds" />
          </mxGeometry>
        </mxCell>
        <mxCell id="ZGHDQgkVR9RvyCiD6TGg-61" value="order_date" style="shape=partialRectangle;connectable=0;fillColor=none;top=0;left=0;bottom=0;right=0;align=left;spacingLeft=6;overflow=hidden;whiteSpace=wrap;html=1;labelBorderColor=default;fontSize=16;" vertex="1" parent="ZGHDQgkVR9RvyCiD6TGg-59">
          <mxGeometry x="40" width="140" height="39" as="geometry">
            <mxRectangle width="140" height="39" as="alternateBounds" />
          </mxGeometry>
        </mxCell>
        <mxCell id="ZGHDQgkVR9RvyCiD6TGg-62" value="" style="shape=tableRow;horizontal=0;startSize=0;swimlaneHead=0;swimlaneBody=0;fillColor=none;collapsible=0;dropTarget=0;points=[[0,0.5],[1,0.5]];portConstraint=eastwest;top=0;left=0;right=0;bottom=0;fontSize=16;" vertex="1" parent="ZGHDQgkVR9RvyCiD6TGg-46">
          <mxGeometry y="186" width="180" height="39" as="geometry" />
        </mxCell>
        <mxCell id="ZGHDQgkVR9RvyCiD6TGg-63" value="" style="shape=partialRectangle;connectable=0;fillColor=none;top=0;left=0;bottom=0;right=0;editable=1;overflow=hidden;whiteSpace=wrap;html=1;fontSize=16;" vertex="1" parent="ZGHDQgkVR9RvyCiD6TGg-62">
          <mxGeometry width="40" height="39" as="geometry">
            <mxRectangle width="40" height="39" as="alternateBounds" />
          </mxGeometry>
        </mxCell>
        <mxCell id="ZGHDQgkVR9RvyCiD6TGg-64" value="shipping_date" style="shape=partialRectangle;connectable=0;fillColor=none;top=0;left=0;bottom=0;right=0;align=left;spacingLeft=6;overflow=hidden;whiteSpace=wrap;html=1;labelBorderColor=default;fontSize=16;" vertex="1" parent="ZGHDQgkVR9RvyCiD6TGg-62">
          <mxGeometry x="40" width="140" height="39" as="geometry">
            <mxRectangle width="140" height="39" as="alternateBounds" />
          </mxGeometry>
        </mxCell>
        <mxCell id="ZGHDQgkVR9RvyCiD6TGg-65" value="" style="shape=tableRow;horizontal=0;startSize=0;swimlaneHead=0;swimlaneBody=0;fillColor=none;collapsible=0;dropTarget=0;points=[[0,0.5],[1,0.5]];portConstraint=eastwest;top=0;left=0;right=0;bottom=0;fontSize=16;" vertex="1" parent="ZGHDQgkVR9RvyCiD6TGg-46">
          <mxGeometry y="225" width="180" height="39" as="geometry" />
        </mxCell>
        <mxCell id="ZGHDQgkVR9RvyCiD6TGg-66" value="" style="shape=partialRectangle;connectable=0;fillColor=none;top=0;left=0;bottom=0;right=0;editable=1;overflow=hidden;whiteSpace=wrap;html=1;fontSize=16;" vertex="1" parent="ZGHDQgkVR9RvyCiD6TGg-65">
          <mxGeometry width="40" height="39" as="geometry">
            <mxRectangle width="40" height="39" as="alternateBounds" />
          </mxGeometry>
        </mxCell>
        <mxCell id="ZGHDQgkVR9RvyCiD6TGg-67" value="due_date" style="shape=partialRectangle;connectable=0;fillColor=none;top=0;left=0;bottom=0;right=0;align=left;spacingLeft=6;overflow=hidden;whiteSpace=wrap;html=1;labelBorderColor=default;fontSize=16;" vertex="1" parent="ZGHDQgkVR9RvyCiD6TGg-65">
          <mxGeometry x="40" width="140" height="39" as="geometry">
            <mxRectangle width="140" height="39" as="alternateBounds" />
          </mxGeometry>
        </mxCell>
        <mxCell id="ZGHDQgkVR9RvyCiD6TGg-68" value="" style="shape=tableRow;horizontal=0;startSize=0;swimlaneHead=0;swimlaneBody=0;fillColor=none;collapsible=0;dropTarget=0;points=[[0,0.5],[1,0.5]];portConstraint=eastwest;top=0;left=0;right=0;bottom=0;fontSize=16;" vertex="1" parent="ZGHDQgkVR9RvyCiD6TGg-46">
          <mxGeometry y="264" width="180" height="39" as="geometry" />
        </mxCell>
        <mxCell id="ZGHDQgkVR9RvyCiD6TGg-69" value="" style="shape=partialRectangle;connectable=0;fillColor=none;top=0;left=0;bottom=0;right=0;editable=1;overflow=hidden;whiteSpace=wrap;html=1;fontSize=16;" vertex="1" parent="ZGHDQgkVR9RvyCiD6TGg-68">
          <mxGeometry width="40" height="39" as="geometry">
            <mxRectangle width="40" height="39" as="alternateBounds" />
          </mxGeometry>
        </mxCell>
        <mxCell id="ZGHDQgkVR9RvyCiD6TGg-70" value="sales_amount" style="shape=partialRectangle;connectable=0;fillColor=none;top=0;left=0;bottom=0;right=0;align=left;spacingLeft=6;overflow=hidden;whiteSpace=wrap;html=1;labelBorderColor=default;fontSize=16;" vertex="1" parent="ZGHDQgkVR9RvyCiD6TGg-68">
          <mxGeometry x="40" width="140" height="39" as="geometry">
            <mxRectangle width="140" height="39" as="alternateBounds" />
          </mxGeometry>
        </mxCell>
        <mxCell id="ZGHDQgkVR9RvyCiD6TGg-71" value="" style="shape=tableRow;horizontal=0;startSize=0;swimlaneHead=0;swimlaneBody=0;fillColor=none;collapsible=0;dropTarget=0;points=[[0,0.5],[1,0.5]];portConstraint=eastwest;top=0;left=0;right=0;bottom=0;fontSize=16;" vertex="1" parent="ZGHDQgkVR9RvyCiD6TGg-46">
          <mxGeometry y="303" width="180" height="39" as="geometry" />
        </mxCell>
        <mxCell id="ZGHDQgkVR9RvyCiD6TGg-72" value="" style="shape=partialRectangle;connectable=0;fillColor=none;top=0;left=0;bottom=0;right=0;editable=1;overflow=hidden;whiteSpace=wrap;html=1;fontSize=16;" vertex="1" parent="ZGHDQgkVR9RvyCiD6TGg-71">
          <mxGeometry width="40" height="39" as="geometry">
            <mxRectangle width="40" height="39" as="alternateBounds" />
          </mxGeometry>
        </mxCell>
        <mxCell id="ZGHDQgkVR9RvyCiD6TGg-73" value="quantity" style="shape=partialRectangle;connectable=0;fillColor=none;top=0;left=0;bottom=0;right=0;align=left;spacingLeft=6;overflow=hidden;whiteSpace=wrap;html=1;labelBorderColor=default;fontSize=16;" vertex="1" parent="ZGHDQgkVR9RvyCiD6TGg-71">
          <mxGeometry x="40" width="140" height="39" as="geometry">
            <mxRectangle width="140" height="39" as="alternateBounds" />
          </mxGeometry>
        </mxCell>
        <mxCell id="ZGHDQgkVR9RvyCiD6TGg-74" value="" style="shape=tableRow;horizontal=0;startSize=0;swimlaneHead=0;swimlaneBody=0;fillColor=none;collapsible=0;dropTarget=0;points=[[0,0.5],[1,0.5]];portConstraint=eastwest;top=0;left=0;right=0;bottom=0;fontSize=16;" vertex="1" parent="ZGHDQgkVR9RvyCiD6TGg-46">
          <mxGeometry y="342" width="180" height="39" as="geometry" />
        </mxCell>
        <mxCell id="ZGHDQgkVR9RvyCiD6TGg-75" value="" style="shape=partialRectangle;connectable=0;fillColor=none;top=0;left=0;bottom=0;right=0;editable=1;overflow=hidden;whiteSpace=wrap;html=1;fontSize=16;" vertex="1" parent="ZGHDQgkVR9RvyCiD6TGg-74">
          <mxGeometry width="40" height="39" as="geometry">
            <mxRectangle width="40" height="39" as="alternateBounds" />
          </mxGeometry>
        </mxCell>
        <mxCell id="ZGHDQgkVR9RvyCiD6TGg-76" value="price" style="shape=partialRectangle;connectable=0;fillColor=none;top=0;left=0;bottom=0;right=0;align=left;spacingLeft=6;overflow=hidden;whiteSpace=wrap;html=1;labelBorderColor=default;fontSize=16;" vertex="1" parent="ZGHDQgkVR9RvyCiD6TGg-74">
          <mxGeometry x="40" width="140" height="39" as="geometry">
            <mxRectangle width="140" height="39" as="alternateBounds" />
          </mxGeometry>
        </mxCell>
        <mxCell id="ZGHDQgkVR9RvyCiD6TGg-80" value="gold.dim_products" style="shape=table;startSize=30;container=1;collapsible=1;childLayout=tableLayout;fixedRows=1;rowLines=0;fontStyle=1;align=center;resizeLast=1;html=1;rounded=1;fillColor=#fff2cc;strokeColor=#d6b656;fontSize=16;" vertex="1" parent="1">
          <mxGeometry x="660" y="220" width="180" height="459" as="geometry" />
        </mxCell>
        <mxCell id="ZGHDQgkVR9RvyCiD6TGg-81" value="" style="shape=tableRow;horizontal=0;startSize=0;swimlaneHead=0;swimlaneBody=0;fillColor=none;collapsible=0;dropTarget=0;points=[[0,0.5],[1,0.5]];portConstraint=eastwest;top=0;left=0;right=0;bottom=1;fontSize=16;" vertex="1" parent="ZGHDQgkVR9RvyCiD6TGg-80">
          <mxGeometry y="30" width="180" height="39" as="geometry" />
        </mxCell>
        <mxCell id="ZGHDQgkVR9RvyCiD6TGg-82" value="PK" style="shape=partialRectangle;connectable=0;fillColor=none;top=0;left=0;bottom=0;right=0;fontStyle=1;overflow=hidden;whiteSpace=wrap;html=1;fontSize=16;" vertex="1" parent="ZGHDQgkVR9RvyCiD6TGg-81">
          <mxGeometry width="30" height="39" as="geometry">
            <mxRectangle width="30" height="39" as="alternateBounds" />
          </mxGeometry>
        </mxCell>
        <mxCell id="ZGHDQgkVR9RvyCiD6TGg-83" value="product_key" style="shape=partialRectangle;connectable=0;fillColor=none;top=0;left=0;bottom=0;right=0;align=left;spacingLeft=6;fontStyle=5;overflow=hidden;whiteSpace=wrap;html=1;fontSize=16;" vertex="1" parent="ZGHDQgkVR9RvyCiD6TGg-81">
          <mxGeometry x="30" width="150" height="39" as="geometry">
            <mxRectangle width="150" height="39" as="alternateBounds" />
          </mxGeometry>
        </mxCell>
        <mxCell id="ZGHDQgkVR9RvyCiD6TGg-84" value="" style="shape=tableRow;horizontal=0;startSize=0;swimlaneHead=0;swimlaneBody=0;fillColor=none;collapsible=0;dropTarget=0;points=[[0,0.5],[1,0.5]];portConstraint=eastwest;top=0;left=0;right=0;bottom=0;fontSize=16;" vertex="1" parent="ZGHDQgkVR9RvyCiD6TGg-80">
          <mxGeometry y="69" width="180" height="39" as="geometry" />
        </mxCell>
        <mxCell id="ZGHDQgkVR9RvyCiD6TGg-85" value="" style="shape=partialRectangle;connectable=0;fillColor=none;top=0;left=0;bottom=0;right=0;editable=1;overflow=hidden;whiteSpace=wrap;html=1;fontSize=16;" vertex="1" parent="ZGHDQgkVR9RvyCiD6TGg-84">
          <mxGeometry width="30" height="39" as="geometry">
            <mxRectangle width="30" height="39" as="alternateBounds" />
          </mxGeometry>
        </mxCell>
        <mxCell id="ZGHDQgkVR9RvyCiD6TGg-86" value="product_id" style="shape=partialRectangle;connectable=0;fillColor=none;top=0;left=0;bottom=0;right=0;align=left;spacingLeft=6;overflow=hidden;whiteSpace=wrap;html=1;labelBorderColor=default;fontSize=16;" vertex="1" parent="ZGHDQgkVR9RvyCiD6TGg-84">
          <mxGeometry x="30" width="150" height="39" as="geometry">
            <mxRectangle width="150" height="39" as="alternateBounds" />
          </mxGeometry>
        </mxCell>
        <mxCell id="ZGHDQgkVR9RvyCiD6TGg-87" value="" style="shape=tableRow;horizontal=0;startSize=0;swimlaneHead=0;swimlaneBody=0;fillColor=none;collapsible=0;dropTarget=0;points=[[0,0.5],[1,0.5]];portConstraint=eastwest;top=0;left=0;right=0;bottom=0;fontSize=16;" vertex="1" parent="ZGHDQgkVR9RvyCiD6TGg-80">
          <mxGeometry y="108" width="180" height="39" as="geometry" />
        </mxCell>
        <mxCell id="ZGHDQgkVR9RvyCiD6TGg-88" value="" style="shape=partialRectangle;connectable=0;fillColor=none;top=0;left=0;bottom=0;right=0;editable=1;overflow=hidden;whiteSpace=wrap;html=1;fontSize=16;" vertex="1" parent="ZGHDQgkVR9RvyCiD6TGg-87">
          <mxGeometry width="30" height="39" as="geometry">
            <mxRectangle width="30" height="39" as="alternateBounds" />
          </mxGeometry>
        </mxCell>
        <mxCell id="ZGHDQgkVR9RvyCiD6TGg-89" value="product_number" style="shape=partialRectangle;connectable=0;fillColor=none;top=0;left=0;bottom=0;right=0;align=left;spacingLeft=6;overflow=hidden;whiteSpace=wrap;html=1;labelBorderColor=default;fontSize=16;" vertex="1" parent="ZGHDQgkVR9RvyCiD6TGg-87">
          <mxGeometry x="30" width="150" height="39" as="geometry">
            <mxRectangle width="150" height="39" as="alternateBounds" />
          </mxGeometry>
        </mxCell>
        <mxCell id="ZGHDQgkVR9RvyCiD6TGg-90" value="" style="shape=tableRow;horizontal=0;startSize=0;swimlaneHead=0;swimlaneBody=0;fillColor=none;collapsible=0;dropTarget=0;points=[[0,0.5],[1,0.5]];portConstraint=eastwest;top=0;left=0;right=0;bottom=0;fontSize=16;" vertex="1" parent="ZGHDQgkVR9RvyCiD6TGg-80">
          <mxGeometry y="147" width="180" height="39" as="geometry" />
        </mxCell>
        <mxCell id="ZGHDQgkVR9RvyCiD6TGg-91" value="" style="shape=partialRectangle;connectable=0;fillColor=none;top=0;left=0;bottom=0;right=0;editable=1;overflow=hidden;whiteSpace=wrap;html=1;fontSize=16;" vertex="1" parent="ZGHDQgkVR9RvyCiD6TGg-90">
          <mxGeometry width="30" height="39" as="geometry">
            <mxRectangle width="30" height="39" as="alternateBounds" />
          </mxGeometry>
        </mxCell>
        <mxCell id="ZGHDQgkVR9RvyCiD6TGg-92" value="product_name" style="shape=partialRectangle;connectable=0;fillColor=none;top=0;left=0;bottom=0;right=0;align=left;spacingLeft=6;overflow=hidden;whiteSpace=wrap;html=1;labelBorderColor=default;fontSize=16;" vertex="1" parent="ZGHDQgkVR9RvyCiD6TGg-90">
          <mxGeometry x="30" width="150" height="39" as="geometry">
            <mxRectangle width="150" height="39" as="alternateBounds" />
          </mxGeometry>
        </mxCell>
        <mxCell id="ZGHDQgkVR9RvyCiD6TGg-93" value="" style="shape=tableRow;horizontal=0;startSize=0;swimlaneHead=0;swimlaneBody=0;fillColor=none;collapsible=0;dropTarget=0;points=[[0,0.5],[1,0.5]];portConstraint=eastwest;top=0;left=0;right=0;bottom=0;fontSize=16;" vertex="1" parent="ZGHDQgkVR9RvyCiD6TGg-80">
          <mxGeometry y="186" width="180" height="39" as="geometry" />
        </mxCell>
        <mxCell id="ZGHDQgkVR9RvyCiD6TGg-94" value="" style="shape=partialRectangle;connectable=0;fillColor=none;top=0;left=0;bottom=0;right=0;editable=1;overflow=hidden;whiteSpace=wrap;html=1;fontSize=16;" vertex="1" parent="ZGHDQgkVR9RvyCiD6TGg-93">
          <mxGeometry width="30" height="39" as="geometry">
            <mxRectangle width="30" height="39" as="alternateBounds" />
          </mxGeometry>
        </mxCell>
        <mxCell id="ZGHDQgkVR9RvyCiD6TGg-95" value="category_id" style="shape=partialRectangle;connectable=0;fillColor=none;top=0;left=0;bottom=0;right=0;align=left;spacingLeft=6;overflow=hidden;whiteSpace=wrap;html=1;labelBorderColor=default;fontSize=16;" vertex="1" parent="ZGHDQgkVR9RvyCiD6TGg-93">
          <mxGeometry x="30" width="150" height="39" as="geometry">
            <mxRectangle width="150" height="39" as="alternateBounds" />
          </mxGeometry>
        </mxCell>
        <mxCell id="ZGHDQgkVR9RvyCiD6TGg-96" value="" style="shape=tableRow;horizontal=0;startSize=0;swimlaneHead=0;swimlaneBody=0;fillColor=none;collapsible=0;dropTarget=0;points=[[0,0.5],[1,0.5]];portConstraint=eastwest;top=0;left=0;right=0;bottom=0;fontSize=16;" vertex="1" parent="ZGHDQgkVR9RvyCiD6TGg-80">
          <mxGeometry y="225" width="180" height="39" as="geometry" />
        </mxCell>
        <mxCell id="ZGHDQgkVR9RvyCiD6TGg-97" value="" style="shape=partialRectangle;connectable=0;fillColor=none;top=0;left=0;bottom=0;right=0;editable=1;overflow=hidden;whiteSpace=wrap;html=1;fontSize=16;" vertex="1" parent="ZGHDQgkVR9RvyCiD6TGg-96">
          <mxGeometry width="30" height="39" as="geometry">
            <mxRectangle width="30" height="39" as="alternateBounds" />
          </mxGeometry>
        </mxCell>
        <mxCell id="ZGHDQgkVR9RvyCiD6TGg-98" value="category" style="shape=partialRectangle;connectable=0;fillColor=none;top=0;left=0;bottom=0;right=0;align=left;spacingLeft=6;overflow=hidden;whiteSpace=wrap;html=1;labelBorderColor=default;fontSize=16;" vertex="1" parent="ZGHDQgkVR9RvyCiD6TGg-96">
          <mxGeometry x="30" width="150" height="39" as="geometry">
            <mxRectangle width="150" height="39" as="alternateBounds" />
          </mxGeometry>
        </mxCell>
        <mxCell id="ZGHDQgkVR9RvyCiD6TGg-99" value="" style="shape=tableRow;horizontal=0;startSize=0;swimlaneHead=0;swimlaneBody=0;fillColor=none;collapsible=0;dropTarget=0;points=[[0,0.5],[1,0.5]];portConstraint=eastwest;top=0;left=0;right=0;bottom=0;fontSize=16;" vertex="1" parent="ZGHDQgkVR9RvyCiD6TGg-80">
          <mxGeometry y="264" width="180" height="39" as="geometry" />
        </mxCell>
        <mxCell id="ZGHDQgkVR9RvyCiD6TGg-100" value="" style="shape=partialRectangle;connectable=0;fillColor=none;top=0;left=0;bottom=0;right=0;editable=1;overflow=hidden;whiteSpace=wrap;html=1;fontSize=16;" vertex="1" parent="ZGHDQgkVR9RvyCiD6TGg-99">
          <mxGeometry width="30" height="39" as="geometry">
            <mxRectangle width="30" height="39" as="alternateBounds" />
          </mxGeometry>
        </mxCell>
        <mxCell id="ZGHDQgkVR9RvyCiD6TGg-101" value="subcategory" style="shape=partialRectangle;connectable=0;fillColor=none;top=0;left=0;bottom=0;right=0;align=left;spacingLeft=6;overflow=hidden;whiteSpace=wrap;html=1;labelBorderColor=default;fontSize=16;" vertex="1" parent="ZGHDQgkVR9RvyCiD6TGg-99">
          <mxGeometry x="30" width="150" height="39" as="geometry">
            <mxRectangle width="150" height="39" as="alternateBounds" />
          </mxGeometry>
        </mxCell>
        <mxCell id="ZGHDQgkVR9RvyCiD6TGg-102" value="" style="shape=tableRow;horizontal=0;startSize=0;swimlaneHead=0;swimlaneBody=0;fillColor=none;collapsible=0;dropTarget=0;points=[[0,0.5],[1,0.5]];portConstraint=eastwest;top=0;left=0;right=0;bottom=0;fontSize=16;" vertex="1" parent="ZGHDQgkVR9RvyCiD6TGg-80">
          <mxGeometry y="303" width="180" height="39" as="geometry" />
        </mxCell>
        <mxCell id="ZGHDQgkVR9RvyCiD6TGg-103" value="" style="shape=partialRectangle;connectable=0;fillColor=none;top=0;left=0;bottom=0;right=0;editable=1;overflow=hidden;whiteSpace=wrap;html=1;fontSize=16;" vertex="1" parent="ZGHDQgkVR9RvyCiD6TGg-102">
          <mxGeometry width="30" height="39" as="geometry">
            <mxRectangle width="30" height="39" as="alternateBounds" />
          </mxGeometry>
        </mxCell>
        <mxCell id="ZGHDQgkVR9RvyCiD6TGg-104" value="maintenance" style="shape=partialRectangle;connectable=0;fillColor=none;top=0;left=0;bottom=0;right=0;align=left;spacingLeft=6;overflow=hidden;whiteSpace=wrap;html=1;labelBorderColor=default;fontSize=16;" vertex="1" parent="ZGHDQgkVR9RvyCiD6TGg-102">
          <mxGeometry x="30" width="150" height="39" as="geometry">
            <mxRectangle width="150" height="39" as="alternateBounds" />
          </mxGeometry>
        </mxCell>
        <mxCell id="ZGHDQgkVR9RvyCiD6TGg-105" value="" style="shape=tableRow;horizontal=0;startSize=0;swimlaneHead=0;swimlaneBody=0;fillColor=none;collapsible=0;dropTarget=0;points=[[0,0.5],[1,0.5]];portConstraint=eastwest;top=0;left=0;right=0;bottom=0;fontSize=16;" vertex="1" parent="ZGHDQgkVR9RvyCiD6TGg-80">
          <mxGeometry y="342" width="180" height="39" as="geometry" />
        </mxCell>
        <mxCell id="ZGHDQgkVR9RvyCiD6TGg-106" value="" style="shape=partialRectangle;connectable=0;fillColor=none;top=0;left=0;bottom=0;right=0;editable=1;overflow=hidden;whiteSpace=wrap;html=1;fontSize=16;" vertex="1" parent="ZGHDQgkVR9RvyCiD6TGg-105">
          <mxGeometry width="30" height="39" as="geometry">
            <mxRectangle width="30" height="39" as="alternateBounds" />
          </mxGeometry>
        </mxCell>
        <mxCell id="ZGHDQgkVR9RvyCiD6TGg-107" value="cost" style="shape=partialRectangle;connectable=0;fillColor=none;top=0;left=0;bottom=0;right=0;align=left;spacingLeft=6;overflow=hidden;whiteSpace=wrap;html=1;labelBorderColor=default;fontSize=16;" vertex="1" parent="ZGHDQgkVR9RvyCiD6TGg-105">
          <mxGeometry x="30" width="150" height="39" as="geometry">
            <mxRectangle width="150" height="39" as="alternateBounds" />
          </mxGeometry>
        </mxCell>
        <mxCell id="ZGHDQgkVR9RvyCiD6TGg-108" value="" style="shape=tableRow;horizontal=0;startSize=0;swimlaneHead=0;swimlaneBody=0;fillColor=none;collapsible=0;dropTarget=0;points=[[0,0.5],[1,0.5]];portConstraint=eastwest;top=0;left=0;right=0;bottom=0;fontSize=16;" vertex="1" parent="ZGHDQgkVR9RvyCiD6TGg-80">
          <mxGeometry y="381" width="180" height="39" as="geometry" />
        </mxCell>
        <mxCell id="ZGHDQgkVR9RvyCiD6TGg-109" value="" style="shape=partialRectangle;connectable=0;fillColor=none;top=0;left=0;bottom=0;right=0;editable=1;overflow=hidden;whiteSpace=wrap;html=1;fontSize=16;" vertex="1" parent="ZGHDQgkVR9RvyCiD6TGg-108">
          <mxGeometry width="30" height="39" as="geometry">
            <mxRectangle width="30" height="39" as="alternateBounds" />
          </mxGeometry>
        </mxCell>
        <mxCell id="ZGHDQgkVR9RvyCiD6TGg-110" value="product_line" style="shape=partialRectangle;connectable=0;fillColor=none;top=0;left=0;bottom=0;right=0;align=left;spacingLeft=6;overflow=hidden;whiteSpace=wrap;html=1;labelBorderColor=default;fontSize=16;" vertex="1" parent="ZGHDQgkVR9RvyCiD6TGg-108">
          <mxGeometry x="30" width="150" height="39" as="geometry">
            <mxRectangle width="150" height="39" as="alternateBounds" />
          </mxGeometry>
        </mxCell>
        <mxCell id="ZGHDQgkVR9RvyCiD6TGg-111" value="" style="shape=tableRow;horizontal=0;startSize=0;swimlaneHead=0;swimlaneBody=0;fillColor=none;collapsible=0;dropTarget=0;points=[[0,0.5],[1,0.5]];portConstraint=eastwest;top=0;left=0;right=0;bottom=0;fontSize=16;" vertex="1" parent="ZGHDQgkVR9RvyCiD6TGg-80">
          <mxGeometry y="420" width="180" height="39" as="geometry" />
        </mxCell>
        <mxCell id="ZGHDQgkVR9RvyCiD6TGg-112" value="" style="shape=partialRectangle;connectable=0;fillColor=none;top=0;left=0;bottom=0;right=0;editable=1;overflow=hidden;whiteSpace=wrap;html=1;fontSize=16;" vertex="1" parent="ZGHDQgkVR9RvyCiD6TGg-111">
          <mxGeometry width="30" height="39" as="geometry">
            <mxRectangle width="30" height="39" as="alternateBounds" />
          </mxGeometry>
        </mxCell>
        <mxCell id="ZGHDQgkVR9RvyCiD6TGg-113" value="start_date" style="shape=partialRectangle;connectable=0;fillColor=none;top=0;left=0;bottom=0;right=0;align=left;spacingLeft=6;overflow=hidden;whiteSpace=wrap;html=1;labelBorderColor=default;fontSize=16;" vertex="1" parent="ZGHDQgkVR9RvyCiD6TGg-111">
          <mxGeometry x="30" width="150" height="39" as="geometry">
            <mxRectangle width="150" height="39" as="alternateBounds" />
          </mxGeometry>
        </mxCell>
        <mxCell id="ZGHDQgkVR9RvyCiD6TGg-27" value="&lt;font style=&quot;font-size: 20px;&quot;&gt;&lt;b&gt;Sales Data Mart&lt;/b&gt; (Star Schema)&lt;/font&gt;" style="text;html=1;align=center;verticalAlign=middle;whiteSpace=wrap;rounded=0;" vertex="1" parent="1">
          <mxGeometry x="-70" y="80" width="470" height="30" as="geometry" />
        </mxCell>
        <mxCell id="ZGHDQgkVR9RvyCiD6TGg-114" value="" style="edgeStyle=entityRelationEdgeStyle;fontSize=12;html=1;endArrow=ERzeroToMany;startArrow=ERmandOne;rounded=0;entryX=-0.038;entryY=0.451;entryDx=0;entryDy=0;entryPerimeter=0;exitX=1;exitY=0.5;exitDx=0;exitDy=0;" edge="1" parent="1" source="ZGHDQgkVR9RvyCiD6TGg-15" target="ZGHDQgkVR9RvyCiD6TGg-56">
          <mxGeometry width="100" height="100" relative="1" as="geometry">
            <mxPoint x="261" y="270" as="sourcePoint" />
            <mxPoint x="361" y="170" as="targetPoint" />
          </mxGeometry>
        </mxCell>
        <mxCell id="ZGHDQgkVR9RvyCiD6TGg-115" value="" style="edgeStyle=entityRelationEdgeStyle;fontSize=12;html=1;endArrow=ERzeroToMany;startArrow=ERmandOne;rounded=0;exitX=0;exitY=0.5;exitDx=0;exitDy=0;entryX=1;entryY=0.5;entryDx=0;entryDy=0;" edge="1" parent="1" source="ZGHDQgkVR9RvyCiD6TGg-81" target="ZGHDQgkVR9RvyCiD6TGg-53">
          <mxGeometry width="100" height="100" relative="1" as="geometry">
            <mxPoint x="550" y="310" as="sourcePoint" />
            <mxPoint x="650" y="210" as="targetPoint" />
          </mxGeometry>
        </mxCell>
        <mxCell id="ZGHDQgkVR9RvyCiD6TGg-116" value="&lt;h1 style=&quot;margin-top: 0px;&quot;&gt;&lt;font style=&quot;font-size: 18px;&quot;&gt;Sales Calculation&lt;/font&gt;&lt;/h1&gt;&lt;div&gt;&lt;font style=&quot;&quot;&gt;Sales = Quantity * Price&lt;/font&gt;&lt;/div&gt;" style="text;html=1;whiteSpace=wrap;overflow=hidden;rounded=0;" vertex="1" parent="1">
          <mxGeometry x="460" y="610" width="180" height="69" as="geometry" />
        </mxCell>
        <mxCell id="ZGHDQgkVR9RvyCiD6TGg-117" value="" style="endArrow=none;dashed=1;html=1;dashPattern=1 3;strokeWidth=2;rounded=0;exitX=0.309;exitY=0.023;exitDx=0;exitDy=0;exitPerimeter=0;entryX=0.811;entryY=1.062;entryDx=0;entryDy=0;entryPerimeter=0;" edge="1" parent="1" source="ZGHDQgkVR9RvyCiD6TGg-116" target="ZGHDQgkVR9RvyCiD6TGg-68">
          <mxGeometry width="50" height="50" relative="1" as="geometry">
            <mxPoint x="410" y="570" as="sourcePoint" />
            <mxPoint x="460" y="520" as="targetPoint" />
          </mxGeometry>
        </mxCell>
      </root>
    </mxGraphModel>
  </diagram>
</mxfile>
